<?xml version="1.0" standalone="no"?>
<!DOCTYPE svg PUBLIC "-//W3C//DTD SVG 20010904//EN"
 "http://www.w3.org/TR/2001/REC-SVG-20010904/DTD/svg10.dtd">
<svg version="1.0" xmlns="http://www.w3.org/2000/svg"
 width="155.000000pt" height="306.000000pt" viewBox="0 0 155.000000 306.000000"
 preserveAspectRatio="xMidYMid meet">
<metadata>
Created by potrace 1.16, written by Peter Selinger 2001-2019
</metadata>
<g transform="translate(0.000000,306.000000) scale(0.100000,-0.100000)"
fill="#000000" stroke="none">
<path d="M751 2663 c-25 -9 -66 -37 -91 -62 -39 -39 -51 -61 -78 -145 -18 -55
-30 -101 -27 -104 6 -7 4 -9 48 64 75 125 155 172 271 160 79 -8 139 -39 214
-112 53 -52 63 -66 60 -90 -6 -57 -188 -125 -418 -155 -244 -32 -401 -85 -490
-165 -59 -53 -76 -89 -95 -192 -22 -119 -14 -144 22 -71 15 30 57 83 93 119
100 100 185 140 540 250 74 23 168 59 209 81 92 49 108 49 55 1 -61 -55 -133
-87 -296 -131 -80 -23 -177 -55 -214 -72 -161 -74 -284 -179 -344 -290 -27
-52 -32 -72 -37 -161 -5 -111 4 -166 67 -393 42 -152 63 -271 57 -330 l-5 -50
21 45 c21 44 22 54 19 378 l-3 333 38 77 c47 96 155 209 268 279 44 28 141 80
216 116 162 78 219 127 269 232 18 39 38 73 44 77 16 10 7 77 -16 122 -74 146
-266 237 -397 189z"/>
<path d="M840 1742 c0 -67 -52 -190 -135 -317 -195 -299 -232 -398 -159 -425
14 -6 82 -10 152 -10 132 0 285 -21 335 -47 37 -19 48 -8 16 15 -68 48 -155
77 -293 98 -50 7 -96 20 -104 28 -36 36 8 152 114 306 112 161 160 309 118
368 -24 35 -44 28 -44 -16z"/>
<path d="M1012 1543 c42 -45 68 -96 68 -133 0 -41 -44 -122 -89 -164 -17 -17
-31 -34 -31 -40 0 -5 49 -57 108 -115 76 -75 113 -119 126 -151 10 -25 24 -59
31 -76 7 -17 16 -64 20 -106 9 -98 -13 -179 -100 -371 -72 -160 -108 -283 -86
-296 24 -15 53 1 67 38 16 39 95 196 180 357 70 131 91 220 74 307 -25 128
-109 249 -252 362 -49 39 -52 50 -24 88 40 53 56 116 43 162 -13 41 -123 165
-148 165 -7 0 -2 -11 13 -27z"/>
<path d="M523 792 c-66 -99 -90 -147 -109 -225 -19 -73 -14 -207 12 -284 22
-67 76 -187 89 -195 13 -10 63 -10 68 0 3 4 -6 39 -20 77 -31 91 -30 86 -44
230 -17 170 1 290 66 458 16 40 -14 11 -62 -61z"/>
</g>
</svg>
